<svg xmlns="http://www.w3.org/2000/svg" width="21" height="21">
  <path
    fill="#3B5998"
    fill-rule="evenodd"
    d="M19.824 0c.328 0 .606.114.834.342.228.228.342.506.342.834v18.648c0 .328-.114.606-.342.834a1.135 1.135 0 0 1-.834.342H14.52v-8.094h2.707l.382-3.199h-3.09v-2.05c0-.493.11-.866.329-1.121.218-.255.62-.383 1.203-.383h1.668V3.309a24.57 24.57 0 0 0-2.434-.11c-1.221 0-2.206.36-2.953 1.081-.747.72-1.12 1.736-1.12 3.049v2.379H8.503v3.2h2.707V21H1.176c-.328 0-.606-.114-.834-.342A1.135 1.135 0 0 1 0 19.825V1.177C0 .849.114.57.342.343.57.115.848 0 1.176 0h18.648z"
  />
</svg>
