<svg xmlns="http://www.w3.org/2000/svg" width="21" height="17">
  <path
    fill="#4099FF"
    fill-rule="evenodd"
    d="M20.895 2.015A8.93 8.93 0 0 1 18.77 4.23c0 .059.008.15.022.276.015.125.023.218.023.277 0 1.15-.17 2.302-.51 3.453a12.201 12.201 0 0 1-1.549 3.298 13.27 13.27 0 0 1-2.468 2.788c-.952.812-2.096 1.461-3.43 1.949-1.336.487-2.77.73-4.306.73-2.39 0-4.575-.642-6.552-1.926.413.03.753.044 1.018.044 1.992 0 3.77-.605 5.335-1.815a4.132 4.132 0 0 1-2.49-.852 4.386 4.386 0 0 1-1.538-2.136c.25.06.523.09.819.09.398 0 .774-.06 1.129-.178a4.236 4.236 0 0 1-2.458-1.483 4.105 4.105 0 0 1-.974-2.7V6c.561.296 1.203.458 1.926.487A4.182 4.182 0 0 1 1.395 4.97a4.19 4.19 0 0 1-.509-2.025c0-.738.185-1.461.554-2.17a11.793 11.793 0 0 0 3.907 3.176c1.527.775 3.183 1.207 4.97 1.295a3.67 3.67 0 0 1-.156-.974c0-1.18.42-2.188 1.262-3.021C12.264.417 13.29 0 14.499 0c.59 0 1.159.118 1.705.354a3.95 3.95 0 0 1 1.394.996A8.466 8.466 0 0 0 20.321.31c-.31 1.004-.937 1.793-1.881 2.369a8.98 8.98 0 0 0 2.457-.665l-.002.001z"
  />
</svg>
