<svg xmlns="http://www.w3.org/2000/svg" width="21" height="21">
  <path
    fill="#007BB6"
    fill-rule="evenodd"
    d="M19.445 0A1.536 1.536 0 0 1 21 1.514v17.97A1.537 1.537 0 0 1 19.445 21H1.55A1.534 1.534 0 0 1 0 19.485V1.514A1.533 1.533 0 0 1 1.55 0h17.895zM3.114 7.875v10.022h3.114V7.875H3.114zm1.553-4.983a1.807 1.807 0 0 0-.687 3.473 1.805 1.805 0 1 0 .687-3.473zM8.18 7.875v10.022h3.112v-4.959c0-1.308.25-2.574 1.87-2.574 1.597 0 1.619 1.49 1.619 2.657v4.877h3.112V12.4c0-2.7-.582-4.774-3.737-4.774-1.515 0-2.531.83-2.947 1.618h-.04V7.875H8.18z"
  />
</svg>
